<?xml version="1.0" encoding="UTF-8"?>
<!DOCTYPE svg PUBLIC "-//W3C//DTD SVG 1.1//EN" "http://www.w3.org/Graphics/SVG/1.1/DTD/svg11.dtd">
<!-- Creator: CorelDRAW 2021 (64-Bit) -->
<svg xmlns="http://www.w3.org/2000/svg" xml:space="preserve" width="14.0611mm" height="14.098mm" version="1.1" style="shape-rendering:geometricPrecision; text-rendering:geometricPrecision; image-rendering:optimizeQuality; fill-rule:evenodd; clip-rule:evenodd"
viewBox="0 0 5.79 5.81"
 xmlns:xlink="http://www.w3.org/1999/xlink"
 xmlns:xodm="http://www.corel.com/coreldraw/odm/2003">
 <defs>
  <style type="text/css">
   <![CDATA[
    .fil0 {fill:#BD0606}
   ]]>
  </style>
 </defs>
 <g id="Layer_x0020_1">
  <metadata id="CorelCorpID_0Corel-Layer"/>
  <path class="fil0" d="M2.16 1.81l0 1.4c0,0.23 0.13,0.43 0.36,0.43l1.48 0c0.43,0 0.55,-0.76 -0.07,-0.76l-1.01 0c0,-0.72 0.14,-1.44 -0.4,-1.44 -0.18,0 -0.36,0.18 -0.36,0.36l-0 0zm-1.44 1.12c-0.02,-0.19 0.11,-0.68 0.19,-0.89 0.12,-0.3 0.47,-0.72 0.73,-0.89 2.18,-1.47 4.59,1.35 2.81,3.27 -0.15,0.16 -0.43,0.36 -0.63,0.45 -0.13,0.06 -0.26,0.1 -0.4,0.14 -0.11,0.03 -0.39,0.07 -0.5,0.08 -0.25,0.01 -0.66,-0.1 -0.88,-0.19 -0.64,-0.27 -1.24,-1.01 -1.27,-1.71l-0.04 -0.25 0 0zm5.07 -0.23l0 0.43c-0.05,0.68 -0.33,1.34 -0.84,1.84 -0.52,0.52 -1.21,0.8 -1.91,0.84l-0.31 0c-0.7,-0.04 -1.39,-0.32 -1.89,-0.84 -0.23,-0.24 -0.41,-0.51 -0.56,-0.81 -0.27,-0.54 -0.28,-0.86 -0.28,-1.45 0,-0.38 0.16,-0.82 0.29,-1.08 0.74,-1.48 2.51,-2.02 3.86,-1.34 1.04,0.52 1.57,1.45 1.64,2.41l0 -0z"/>
 </g>
</svg>
