<?xml version="1.0" encoding="UTF-8"?>
<!DOCTYPE svg PUBLIC "-//W3C//DTD SVG 1.1//EN" "http://www.w3.org/Graphics/SVG/1.1/DTD/svg11.dtd">
<!-- Creator: CorelDRAW 2021 (64-Bit) -->
<svg xmlns="http://www.w3.org/2000/svg" xml:space="preserve" width="14.3863mm" height="15.4079mm" version="1.1" style="shape-rendering:geometricPrecision; text-rendering:geometricPrecision; image-rendering:optimizeQuality; fill-rule:evenodd; clip-rule:evenodd"
viewBox="0 0 5.63 6.03"
 xmlns:xlink="http://www.w3.org/1999/xlink"
 xmlns:xodm="http://www.corel.com/coreldraw/odm/2003">
 <defs>
  <style type="text/css">
   <![CDATA[
    .fil0 {fill:#BD0606}
   ]]>
  </style>
 </defs>
 <g id="Layer_x0020_1">
  <metadata id="CorelCorpID_0Corel-Layer"/>
  <path class="fil0" d="M4.22 0.23l0 0.94c0,0.27 0.48,0.36 0.48,-0.07l0 -0.83c0,-0.17 -0.1,-0.26 -0.21,-0.28l-0.08 0c-0.05,0.01 -0.1,0.04 -0.14,0.08 -0.03,0.03 -0.06,0.1 -0.06,0.15l0 0zm-3.3 4.88l0.94 0 0 -0.94 -0.94 0 0 0.94zm1.38 -2.28l0 0.87 0.94 0 0 -0.94 -0.87 0c-0.05,0 -0.07,0.02 -0.07,0.07l-0 0zm1.4 0.87l0.94 0 0 -0.87c0,-0.05 -0.02,-0.07 -0.07,-0.07l-0.87 0 0 0.94 -0 -0zm-1.4 1.33c0,0.05 0.02,0.07 0.07,0.07l0.87 0 0 -0.94 -0.94 0 0 0.87 0 0zm-1.38 -2.21l0 0.87 0.94 0 0 -0.87c0,-0.05 -0.02,-0.07 -0.07,-0.07l-0.81 0c-0.05,0 -0.07,0.02 -0.07,0.07l-0 0zm2.78 2.21c0,0.05 0.02,0.07 0.07,0.07l0.87 0 0 -0.94 -0.94 0 0 0.87 0 0zm-2.78 -4.81l0 0.94c0,0.27 0.48,0.36 0.48,-0.07l0 -0.83c0,-0.17 -0.1,-0.26 -0.21,-0.28l-0.07 0c-0.1,0.01 -0.2,0.09 -0.2,0.23zm-0.92 1.15l0 4.21c0,0.17 0.22,0.44 0.48,0.44l2.76 0 1.9 0 0.03 0c0.25,0 0.45,-0.2 0.45,-0.45l0 -2.33 0 -1.79c0,-0.28 -0.22,-0.53 -0.48,-0.53l-0.23 0 0 0.25c0,0.56 -0.9,0.61 -0.9,-0.02 0,-0.11 0.03,-0.23 -0.07,-0.23l-2.34 0 0 0.25c0,0.51 -0.92,0.73 -0.92,-0.18l0 -0.07 -0.21 0c-0.24,0 -0.48,0.22 -0.48,0.46l-0 0zm3.24 4.16l-2.71 0c-0.05,0 -0.07,-0.02 -0.07,-0.07l0 -3.15 4.68 0 0 0.92 0 2.25c0,0.03 -0.02,0.05 -0.05,0.05l-1.85 0 -0 0z"/>
 </g>
</svg>
