<?xml version="1.0" encoding="UTF-8"?>
<!DOCTYPE svg PUBLIC "-//W3C//DTD SVG 1.1//EN" "http://www.w3.org/Graphics/SVG/1.1/DTD/svg11.dtd">
<!-- Creator: CorelDRAW 2021 (64-Bit) -->
<svg xmlns="http://www.w3.org/2000/svg" xml:space="preserve" width="11.1417mm" height="14.5463mm" version="1.1" style="shape-rendering:geometricPrecision; text-rendering:geometricPrecision; image-rendering:optimizeQuality; fill-rule:evenodd; clip-rule:evenodd"
viewBox="0 0 3.81 4.97"
 xmlns:xlink="http://www.w3.org/1999/xlink"
 xmlns:xodm="http://www.corel.com/coreldraw/odm/2003">
 <defs>
  <style type="text/css">
   <![CDATA[
    .fil0 {fill:#BD0606}
   ]]>
  </style>
 </defs>
 <g id="Layer_x0020_1">
  <metadata id="CorelCorpID_0Corel-Layer"/>
  <path class="fil0" d="M2.4 0.81c0.02,-0 0.05,0.01 0.06,0.02 0.06,0.04 0.12,0.08 0.18,0.13l0.07 0.07c0.01,0.01 0.02,0.02 0.04,0.04 0.03,0.04 0.04,0.06 0.05,0.07 0,0.01 0.01,0.02 0.02,0.02 0.01,0.01 0.01,0.02 0.01,0.02 0.04,0.06 0.01,0.02 0.04,0.08l0.02 0.05c0.01,0.04 0.07,0.16 0.04,0.18 0.04,0.09 0.03,0.31 0.02,0.41 -0.05,0.34 -0.28,0.64 -0.58,0.78 -0.88,0.42 -1.82,-0.44 -1.46,-1.35 0.17,-0.43 0.65,-0.73 1.14,-0.65 0.06,0.01 0.13,0.02 0.18,0.04 0.03,0.01 0.14,0.06 0.16,0.06l0 0zm-2.4 0.96l0 0.22 0.04 0.24c0.02,0.08 0.04,0.15 0.07,0.22 0.24,0.7 0.78,1.57 1.29,2.28 0.12,0.16 0.29,0.25 0.5,0.25 0.2,-0 0.38,-0.09 0.49,-0.26 0.59,-0.84 1.27,-1.97 1.39,-2.58 0.01,-0.04 0.01,-0.11 0.02,-0.14l0 -0.19c-0.01,-0.03 -0.02,-0.16 -0.02,-0.2 -0.06,-0.41 -0.26,-0.77 -0.53,-1.05 -0.05,-0.05 -0.19,-0.16 -0.25,-0.21 -0.24,-0.17 -0.5,-0.28 -0.8,-0.33 -0.04,-0.01 -0.18,-0.02 -0.2,-0.02l-0.24 0c-0.02,0.01 -0.07,0.01 -0.1,0.01 -0.77,0.1 -1.4,0.64 -1.6,1.38 -0.02,0.06 -0.03,0.12 -0.04,0.18 -0.01,0.04 -0.02,0.17 -0.03,0.19l-0 0z"/>
 </g>
</svg>
