<?xml version="1.0" encoding="UTF-8"?>
<!DOCTYPE svg PUBLIC "-//W3C//DTD SVG 1.1//EN" "http://www.w3.org/Graphics/SVG/1.1/DTD/svg11.dtd">
<!-- Creator: CorelDRAW 2021 (64-Bit) -->
<svg xmlns="http://www.w3.org/2000/svg" xml:space="preserve" width="28.1273mm" height="18.0009mm" version="1.1" style="shape-rendering:geometricPrecision; text-rendering:geometricPrecision; image-rendering:optimizeQuality; fill-rule:evenodd; clip-rule:evenodd"
viewBox="0 0 191.11 122.31"
 xmlns:xlink="http://www.w3.org/1999/xlink"
 xmlns:xodm="http://www.corel.com/coreldraw/odm/2003">
 <defs>
  <style type="text/css">
   <![CDATA[
    .fil1 {fill:#BA0606}
    .fil2 {fill:#BC0606}
    .fil0 {fill:url(#id0)}
   ]]>
  </style>
  <linearGradient id="id0" gradientUnits="userSpaceOnUse" x1="94.19" y1="22.63" x2="95.29" y2="115.03">
   <stop offset="0" style="stop-opacity:1; stop-color:#025835"/>
   <stop offset="0.309804" style="stop-opacity:1; stop-color:#03653C"/>
   <stop offset="0.419608" style="stop-opacity:1; stop-color:#05874E"/>
   <stop offset="0.568627" style="stop-opacity:1; stop-color:#05623D"/>
   <stop offset="1" style="stop-opacity:1; stop-color:#054A31"/>
  </linearGradient>
 </defs>
 <g id="Layer_x0020_1">
  <metadata id="CorelCorpID_0Corel-Layer"/>
  <g id="_2263916701088">
   <path class="fil0" d="M51.7 48.79c-0.41,-0.61 -6.85,-5.26 -7.94,-6.03l-21.56 -17.13c-0.58,-0.5 -1.31,-1.23 -1.49,-2.04 0.95,0.02 1.39,0.5 2.06,0.99 0.03,0.02 0.07,0.05 0.09,0.07 0.03,0.02 0.06,0.05 0.09,0.07l7.04 5c0.44,0.31 0.72,0.46 1.15,0.78l18.38 10.83c0.89,0.41 5.31,2.33 5.77,1.47 0.28,-0.52 -0.76,-2.2 -1.06,-2.64 -0.64,-0.95 -1.09,-1.35 -1.09,-2.92 1.1,0 1.91,0.53 2.61,1.24 2.58,2.63 4.18,3.92 6.64,6.21 0.21,0.2 0.3,0.28 0.5,0.46 1.78,1.61 3.65,2.94 5.57,4.38 0.82,0.61 1.35,1.25 2.06,1.96 1.06,1.07 5.74,5.23 7.21,4.41 0.29,-0.16 0.67,-0.79 0.8,-1.14 0.84,-2.27 0.14,-2.5 -0.38,-4.64 -0.34,-1.4 -0.06,-1.92 -0.94,-3.07 -1.05,-1.37 -2.95,-2.96 -3.35,-4.67 0.69,0 1.14,0.17 1.66,0.43 1.02,0.52 2.45,3.12 3.77,1.95 1.58,-1.4 0.11,-3.96 4.21,-4.3 0,-1.07 -0.53,-2.02 -1.03,-2.66 -0.23,-0.3 -0.55,-0.67 -0.81,-0.95l-1.52 -1.21c-1.36,-0.83 -1.68,-1.79 -3.52,-3.06 -1.48,-1.02 -2.97,-1.97 -4.6,-2.78 -1.7,-0.85 -3.22,-1.69 -4.91,-2.47l-12.44 -6.02c-1.61,-0.9 -3.02,-1.77 -4.47,-2.92 -0.74,-0.58 -1.49,-1.1 -2.5,-1.19 0,2.14 1.51,4.23 2.48,5.38 1.13,1.34 2.48,2.45 3.58,3.8l1.23 1.5c0.03,0.04 0.12,0.14 0.15,0.18 0.99,1.17 2.6,1.43 2.99,3.11 -0.74,0 -1.81,-0.41 -2.34,-0.71 -0.71,-0.39 -1.2,-0.79 -1.81,-1.24 -0.6,-0.45 -1.12,-0.87 -1.75,-1.3 -0.65,-0.44 -1.32,-0.66 -1.92,-1.13l-7.16 -5.04c-0.32,-0.24 -0.52,-0.34 -0.85,-0.59 -0.36,-0.27 -0.52,-0.44 -0.89,-0.71 -1.74,-1.3 -5.69,-3.77 -7.09,-5.11 -1.33,-1.29 -3.47,-3.9 -5.42,-3.9 0,3.35 0.78,3.72 1.87,6.15 0.62,1.38 1.54,1.66 2.58,2.71 0.27,0.27 0.39,0.38 0.67,0.62l0.26 0.22c0.95,0.8 2.8,2.1 3.12,3.3 -0.85,-0.02 -1.48,-0.31 -2.12,-0.61l-11.33 -6.97c-4.2,-2.84 -8.43,-5.66 -12.48,-8.7 -0.27,-0.2 -0.32,-0.24 -0.56,-0.4 -0.11,-0.08 -0.17,-0.1 -0.29,-0.19l-5.69 -4.42c-1.01,-0.85 -3.3,-2.79 -4.61,-3.1 -0.39,1.67 -0.43,2.28 -0.11,4.12 0.1,0.59 0.18,1.44 0.28,2.13 0.1,0.7 0.31,1.25 0.48,1.93l1.12 3.53c0.36,1.1 0.94,2.38 1.44,3.37 0.75,1.5 1.56,3.12 2.77,4.29 0.89,0.86 0.22,1.15 1.92,2.89l1.11 1.3c0.71,0.93 1.35,1.87 1.9,2.91 -1.59,-0.37 -2.26,-1.12 -4.01,-1.12 0.13,1.54 2.54,3.61 3.55,4.8 0.02,0.03 0.05,0.06 0.07,0.09l6.33 5.55c1,0.67 3.07,1.46 3.35,1.79l0.67 1.1c-0.83,0 -1.94,0.26 -2.73,0.32 0.1,1.16 1.26,1.77 2.02,2.47 0.88,0.81 1.8,1.39 2.75,2.06 2.39,1.71 4.83,3.37 7.42,4.77l3.89 1.73c2.32,0.99 3.04,0.71 3.18,2.44 -0.81,0 -0.72,0.15 -1.44,0.16 0.04,0.54 -0.03,0.4 0.4,0.88 0.03,0.03 0.23,0.24 0.24,0.25 3.16,3.23 13.71,7 17.88,8.92 0.59,0.27 0.92,0.29 1.07,0.86 -0.38,0.18 -0.71,0.2 -1.13,0.32 -0.68,0.2 -0.55,0.33 -1.12,0.49 0.07,0.79 -0.11,0.34 1.25,1.16l4.7 2.69c1.57,0.86 3.23,1.78 4.94,2.44 0.68,0.26 1.02,0.47 1.95,0.67l8.19 2.36c-0.03,1.38 -0.66,1.74 -1.33,2.37 -0.67,0.64 -1.4,1.22 -1.4,2.45 0.49,0.32 0.79,0.62 1.61,0.64 0,0.76 0.03,0.72 0.16,1.28 -1.83,0.97 -0.98,0.84 -2.06,2.27 -0.74,0.99 -1.25,1.05 -1.95,2.38 0.33,0.45 0.39,0.26 0.79,0.82 0.79,1.14 0.52,2.64 -1.35,3.03 -0.82,2.06 -5.13,6.07 -7.46,6.89 0.21,0.82 1.08,1.42 1.93,1.62 0.34,-0.64 0.46,-1.14 0.64,-1.93 2.09,0.49 0.92,1.94 2.73,2.09l0.64 -2.41c1.17,0.31 0.63,1.44 1.35,2.03 0.2,0.16 0.88,0.41 1.16,0.31 0.83,-0.32 0.7,-3.87 1.84,-4.9 0.32,-0.29 0.73,-0.44 1.12,-0.65l0 0.49c0.43,-0.19 0.27,-0.08 0.56,-0.58 0.18,-0.31 0.19,-0.31 0.3,-0.71 -2.42,0.98 1.51,-3.16 2.05,-3.68 0.02,-0.02 0.06,-0.05 0.08,-0.08 0.48,-0.45 1.18,-1.04 1.83,-1.22 1.31,0.88 0.91,2.66 2.53,1.56 0.54,-0.36 0.81,-0.82 1.13,-1.43l2.12 -4.46c1.1,0.09 1.06,0.48 1.15,0.62 0.1,0.15 0.07,0.22 0.32,0.48 1.09,1.09 2.68,-1.2 3.04,-2.2 0.35,-0.97 -0.11,-0.36 0.58,-1.19l0.37 -1.08c-2.54,-1.7 -2.22,0.01 -3.88,-3.66 -0.42,-0.93 -0.99,-2.49 -1.69,-3.08l-1.4 -1.38c-1.38,-1.19 -3.2,-0.55 -4.58,-0.54 -1.14,0 -1.85,-0.09 -2.74,-0.17 0,-1.74 0.27,-7.75 -0.18,-8.81 -0.46,-1.08 -1.25,-1.61 -2.13,-2.37l-8.88 -7.17c-0.87,-0.74 -3.08,-2.76 -4.06,-2.84 0,1.45 0.64,2.16 1.19,3.14 0.56,0.99 0.93,1.92 1.21,3.12 -1.96,-0.04 -2.93,-1.43 -5.23,-2.8 -0.9,-0.54 -1.63,-0.95 -2.53,-1.48l-2.52 -1.66zm43.86 62.24c-19.96,0 -37.21,4.37 -45.4,10.71 -0.13,0.1 -0.16,0.28 -0.08,0.42 0.08,0.14 0.26,0.2 0.41,0.13 9.36,-4.31 26.04,-7.18 45.07,-7.18 19.03,0 35.71,2.87 45.07,7.18 0.15,0.07 0.32,0.01 0.41,-0.13 0.08,-0.14 0.05,-0.32 -0.08,-0.42 -8.19,-6.34 -25.44,-10.71 -45.4,-10.71zm20.63 -21.8c0.62,1.05 2.95,5.41 3.16,6.42 1.12,0.2 1.16,1.13 2.03,1.76 0.61,-0.16 0.74,-0.49 1.05,-1.03 0.47,-0.81 0.31,-0.57 1.03,-1.05 0.96,1.43 0.72,1.89 1.44,2.09 0.11,-0.41 1.07,-1.89 1.61,-2.25 0.2,0.85 0.6,1.55 0.96,2.25 1.55,-0.41 3.76,-4.28 -0.75,-6.79 -1.34,-0.75 -2.66,-0.94 -4.21,-1.41 -0.78,-0.24 -1.39,-0.4 -1.9,-0.98 -0.51,-0.59 -0.68,-1.14 -0.68,-2.21 2.24,-0.6 0.68,-2.39 -0.23,-3.3 -0.86,-0.87 -2.4,-2.28 -2.5,-3.44 0.94,-0.08 1.14,-0.43 1.93,-0.96 -0.45,-0.86 -0.45,-0.39 -1,-1.57 -1.02,-2.19 -1.94,-1.43 -2.21,-2.42 0,-1.02 -0.05,-0.91 0.91,-1.04l9.69 -2.83 5.53 -2.33c3.16,-1.63 2.46,-1.49 4.83,-3.04 0.46,-0.3 0.16,-0.25 0.72,-0.4 -0.09,-1.09 -0.72,-0.69 -1.28,-1.77 0.38,-0.2 0.66,-0.31 1.09,-0.51l4.7 -2.04c2.25,-0.92 6.09,-2.75 8.08,-4.12 0.79,-0.54 1.26,-1.26 1.85,-1.52 1.08,-0.47 1.55,-0.23 2.25,-1.28 -0.3,-1.29 -0.8,-0.64 -1.77,-1.28 0.32,-1.37 1.86,-1.35 2.69,-1.65l2.93 -1.33c1.41,-0.37 2.71,-1.34 3.96,-2.04 2.49,-1.39 5.11,-2.91 7.31,-4.73 0.93,-0.77 2.12,-1.51 2.75,-2.56 0.01,-0.02 0.04,-0.06 0.05,-0.08 0.34,-0.69 -0.75,-0.6 -1.72,-0.92 -0.26,-0.08 -0.37,-0.1 -0.64,-0.17l0 -0.8c1.59,-0.04 3.69,-1.73 4.96,-2.75 1.48,-1.19 2.8,-2.36 4.15,-3.71 1.41,-1.4 2.51,-2.56 3.76,-4.11 0.45,-0.57 1.83,-1.9 0.32,-1.97 -1.84,-0.09 -1.02,0.99 -3.07,0.99 0.25,-0.52 0.28,-1.19 0.64,-1.61 0.6,-0.72 0.49,-0.27 2.16,-2.49l3.22 -4.96 2.7 -5.65c0.52,-1.03 1.23,-2.24 1.52,-3.3 0.67,-2.46 1.43,-5.91 0.35,-8.15 -0.68,0.02 -0.99,0.18 -1.4,0.53 -0.44,0.37 -0.67,0.59 -1.14,0.94l-4.22 3.16c-1.76,1.23 -8.03,5.81 -8.6,6.49 -0.82,0.98 -2.65,1.67 -3.79,2.47l-4.89 3.3c-1.38,0.99 -2.89,1.92 -4.41,2.65 -1.91,0.91 -1.23,0.7 -3.06,2.08 -1.96,1.47 -5.69,4.01 -8.14,4.22 0.39,-0.58 1.05,-1.16 1.63,-1.58 0.65,-0.48 1.14,-0.89 1.81,-1.4 2.23,-1.67 4.02,-3.39 5.67,-5.57 1.38,-1.82 1.97,-3.45 1.97,-6.21 -1.11,0.02 -1.99,1.04 -2.77,1.73l-2.14 2.03c-1.69,1.57 -3.81,2.61 -5.56,4.07 -1.42,1.18 -3.02,2.14 -4.54,3.16l-11.98 8.08c-0.6,0.36 -1.43,0.93 -2.22,0.99 0.43,-1.84 4.76,-4.76 6.08,-6.44 0.93,-1.18 1.8,-2.34 2.87,-3.39 1.24,-1.23 1.81,-2.61 1.81,-4.45 -0.67,-0.14 -0.21,-0.11 -0.65,-0 -1.63,0.39 -2.69,1.81 -3.98,2.76 -2.65,1.94 -5.89,3.27 -8.87,4.61 -5.06,2.28 -10.81,4.72 -15.26,8.02 -0.83,0.61 -2.42,1.27 -2.57,1.44l-1.33 1.56c-0.24,0.22 -0.27,0.24 -0.5,0.46 -1.7,1.57 -3.6,3.59 -3.6,6.2 1.01,0.24 1.92,0.16 2.91,0.46 2.78,0.84 2.64,0.72 4.96,-0.61 0.7,-0.4 1.54,-0.93 2.4,-1.13l0.87 0.9c1.53,1.5 1.3,2.97 1.81,3.96 0.2,0.38 0.33,0.33 0.7,0.58 0.35,0.24 0.38,0.28 0.79,0.5l0 2.89c-1.26,0.33 -3.19,1.55 -3.79,2.79l-0.54 1.7c0.64,-0.05 0.7,-0.22 1.2,-0.57 0.15,-0.1 0.27,-0.17 0.4,-0.24l7.03 -5.65c0.93,-0.87 1.81,-1.52 2.73,-2.41 0.46,-0.45 0.79,-0.64 1.29,-1.12 0.14,-0.14 0.19,-0.18 0.33,-0.31l3.03 -2.75c0.26,-0.22 0.41,-0.39 0.65,-0.63l1.42 -1.63c0.84,-0.89 0.57,0.09 2.44,-2.06 0.53,-0.61 0.65,-0.92 1.64,-0.92 -0.33,1.44 -1.53,3.09 -2.32,4.26 -0.71,1.06 -1.05,1.58 -1.05,3.12 1.99,0 4.28,-1.08 6.06,-1.97l1.06 -0.55c0.44,-0.24 0.62,-0.35 1.05,-0.56 0.44,-0.21 0.71,-0.38 1.13,-0.63l1.48 -0.93c0.24,-0.14 0.24,-0.11 0.52,-0.28l10.44 -6.42c0.03,-0.02 0.06,-0.05 0.09,-0.07l10.47 -7.03c0.62,-0.57 0.26,-0.54 1.09,-0.35 -0.15,1.78 -2.05,1.96 -2.78,2.84 -1.17,1.41 0.19,0.26 -2.04,2.13l-1.8 1.57c-1.76,1.57 -3.81,2.81 -5.44,4.51 -0.6,0.63 -0.88,1.3 -1.72,1.65 -1.76,0.73 -4.01,2.96 -5.62,4.17 -1.31,0.98 -2.46,1.8 -3.64,2.94 -1.15,1.11 -5.51,3.21 -6.01,4.17 -0.58,0.02 -0.87,0.35 -1.35,0.67 -0.51,0.34 -0.86,0.57 -1.35,0.9 -0.93,0.63 -1.8,1.14 -2.73,1.76 -0.55,0.37 -4.98,3.5 -5.62,3.31 -0.38,-0.11 -0.49,0.04 0,-1.39 0.4,-1.17 2.06,-2.04 2.27,-4.52 0.1,-1.22 -0.79,-0.45 -2.27,0.66 -1.83,1.37 -4.91,4.25 -6.21,5.35l-6.06 4.7c-0.5,0.37 -0.78,0.63 -1.26,0.99 -0.45,0.34 -0.85,0.62 -1.28,0.96l-1.84 1.53c-0.22,0.23 -0.32,0.38 -0.5,0.62 -1.79,2.38 -2.69,7.21 -4.75,4.66 -0.29,-0.36 -0.66,-0.84 -1.14,-0.95 -0.56,-0.13 -4.66,2.16 -5.31,2.59 -1.39,0.93 -0.89,1 -0.89,2.8 0.84,0.07 0.23,-0.14 0.56,0.25l0.16 0.33c0.01,0.03 0.03,0.09 0.04,0.12 0.01,0.03 0.02,0.09 0.04,0.12l2.27 6.87c0.01,0.04 0.03,0.08 0.04,0.12 0.3,0.79 0.73,1.76 1.54,2.17 1.34,0.68 1.84,-1 2.25,-1.78 0.71,0.52 1.43,2.85 1.96,3.82 1.32,2.43 1.22,2.7 2.86,3.08 0.64,-0.43 1.33,-1.28 1.77,-1.93 1.54,0.36 2.53,1.69 3,3.05zm-23.87 0.04c0.34,0.52 -0.19,5.6 -0.41,6.38 -0.13,0.77 -0.14,1.3 -0.27,2.04 -0.69,3.71 -0.8,1.8 -0.44,6.14 0.53,-0.01 0.52,0.18 1.15,-0.77l3.24 -6.4c0.14,-0.28 0.19,-0.35 0.34,-0.63 0.2,-0.36 0.13,-0.25 0.32,-0.64l3.36 -6.43c0.46,-0.84 1.03,-1.59 1.43,-2.42 0.34,-0.71 1,-2.25 0.6,-3.09 -0.9,-0.43 -3.55,-0.16 -4.81,-0.16l-0.14 -5.47c-0.08,-0.71 -0.7,-0.84 -2.1,-0.8 -2.2,0.07 -2.77,2.27 -3.85,4.67 -0.14,0.32 -0.28,0.66 -0.43,1.01 -0.17,0.4 -0.24,0.7 -0.38,1.07 -1.39,3.71 0.49,1.62 2.89,2.89 0,1.38 0.05,1.7 -0.48,2.6zm-4.18 -61.67c1.34,0 0.99,0.1 1.77,0.16 -0.2,0.74 -0.89,1.14 -1.51,1.54 -1.36,0.89 -4.94,2.77 -5.07,4.4l3.23 -0.62c1.94,-0.42 1.12,-0.98 3.99,-0.98 0,1.11 -0.03,1.09 -1.25,2.29 -0.58,0.56 -0.82,0.92 -1.26,1.63l-0.74 1.34c-0.13,0.27 -0.15,0.27 -0.28,0.53 -0.53,1.07 -0.65,1.26 -0.65,2.24l1.75 -0.82c0.23,-0.16 -0.01,0.03 0.27,-0.21l0.48 -0.48c1.39,-1.34 1.67,-1.1 1.67,0.55 0,0.27 -1.19,1.39 -0.4,2.96 0.29,0.58 0.48,0.32 0.56,1.21 2.3,0 3.09,-0.96 4.17,-0.96 2.08,0 3.04,1.93 4.82,1.93 2.33,0 1.83,0.19 2.77,-0.76 0.42,-0.43 0.48,-0.43 0.99,-0.77 1.8,-1.21 2.2,-4.82 3.26,-7.34 2.09,-4.98 6.52,-4.52 7.42,-4.94 1.18,-0.55 1.1,-3.04 0.17,-3.99 -1.24,-1.27 -3.95,-0.44 -5.15,-0.18l-4.34 1.12c-0.94,0.17 -1.44,0.18 -2.55,0.18 0.32,-0.89 1.28,-0.47 3.21,-1.76 -0.37,-4.5 -7.81,-3.53 -11.05,-3.18l-6.07 1.48c-2.1,0.74 -3.39,1.36 -5.43,2.28 -0.62,0.28 -1.01,0.5 -1.6,0.8 -1.43,0.73 -1.94,0.73 -2.6,1.91 -0.4,0.71 -0.78,1.15 1.31,0.65 2.57,-0.61 5.48,-2.18 8.1,-2.18z"/>
   <path class="fil1" d="M41.9 92.44c0,-1.19 0.52,-2.26 1.17,-2.85 0.22,-0.2 0.86,-0.67 1.15,-0.78 1.83,-0.7 3.19,-0.37 4.55,0.78 1.8,1.52 1.51,5.19 -0.79,6.35 -1.36,0.69 -2.72,0.79 -4.08,-0.04 -1.13,-0.69 -1.99,-1.99 -1.99,-3.46zm19.75 3.36c2.33,-0.82 6.64,-4.83 7.46,-6.89 -1.22,0.13 -2.82,0.45 -4.08,0.49 -2.74,0.08 -7.61,-0.66 -10.28,-1.61 -5.77,-2.05 -11.64,-5.21 -14.92,1.13 -1.26,2.43 -1.09,6.09 0.67,8.3 1.49,1.88 3.41,2.56 5.77,2.31 2.57,-0.27 5.03,-1.13 7.48,-2l3.65 -1.16c1.41,-0.43 2.51,-0.51 4.26,-0.57z"/>
   <path class="fil1" d="M132.77 89.56l-4.66 0c0.03,1.54 1.33,1.84 2.15,4.27 0.57,1.69 0.13,1.36 2.02,1.99l1.72 0.69c1.24,0.58 2.02,0.82 2.7,2.12 0.32,0.61 0.17,0.54 0.74,0.86 1.8,1.01 1.77,0.84 3.58,1.24 2.15,0.48 5.59,0.27 6.55,-2 0.16,-0.38 0.14,0.44 0.14,-0.51 0,-0.67 -1.33,-0.97 -1.81,-1.08 -1.03,-0.24 -1.37,-0.27 -2.31,-0.58 -2.03,-0.68 -2.31,-1.93 -2.31,-4.28 0,-0.48 1.35,-1.28 2.25,-1.28 1.78,0 5.78,1.62 5.78,0.32 0,-2.52 -5.99,-7.09 -9.89,-4.75 -1.44,0.86 -2.51,1.74 -4.1,2.32 -0.48,0.17 -2.05,0.66 -2.55,0.66z"/>
   <path class="fil2" d="M73.91 91.16c-0.11,0.4 -0.12,0.4 -0.3,0.71 -0.29,0.5 -0.13,0.39 -0.56,0.58l-0.64 2.88c0.8,0.42 0.91,0.33 2.09,0.32 1.09,-0.01 1.45,0.16 2.4,0.17 5.09,0.06 10.04,-0.17 15.01,-0.17 0.22,-0.78 0.75,-5.86 0.41,-6.38l-2.24 0.3c-4.75,0.36 -10.43,-0.75 -13.45,0.2 -0.39,0.12 -0.02,0.01 -0.46,0.18 -1.13,0.42 -1.2,0.32 -2.26,1.22z"/>
   <path class="fil1" d="M119.35 95.65c-0.22,-1.01 -2.54,-5.37 -3.16,-6.42 -0.84,0.49 -4.67,0.06 -6.04,0.17 -1.94,0.16 -8.22,-0.06 -8.88,0.44l-1.67 1.54c-0.96,1.29 -1.91,2.93 -1.19,4.43 0.93,0 1.47,-0.15 2.57,-0.16l2.55 -0.18c1.65,-0.13 3.43,-0.15 5.31,-0.15l5.23 0.23c1.63,0.25 3.55,0.09 5.27,0.09z"/>
  </g>
 </g>
</svg>
